<svg width="21.000000" height="21.000000" viewBox="0 0 21 21" fill="none" xmlns="http://www.w3.org/2000/svg" xmlns:xlink="http://www.w3.org/1999/xlink">
	<desc>
			Created with Pixso.
	</desc>
	<defs/>
	<path id="Vector" d="M10.5 0C4.70117 0 0 4.70108 0 10.4998C0 16.2989 4.70117 21 10.5 21C16.2988 21 21 16.299 21 10.4998C21 4.70108 16.2988 0 10.5 0ZM10.623 16.6411C7.23828 16.6411 4.49707 13.8929 4.49707 10.4999C4.49707 7.10703 7.23828 4.35883 10.623 4.35883C12.2764 4.35883 13.6582 4.96906 14.7197 5.95938L12.9922 7.69043L12.9922 7.68652C12.3496 7.07239 11.5342 6.75775 10.623 6.75775C8.60156 6.75775 6.95898 8.46951 6.95898 10.4962C6.95898 12.5225 8.60156 14.2384 10.623 14.2384C12.457 14.2384 13.7041 13.1868 13.9609 11.7437L10.623 11.7437L10.623 9.34851L16.3848 9.34851C16.4609 9.75906 16.5029 10.189 16.5029 10.6381C16.5029 14.1463 14.1602 16.6411 10.623 16.6411Z" fill="#FFFFFF" fill-opacity="1.000000" fill-rule="evenodd"/>
</svg>
