<svg width="29.168945" height="11.111938" viewBox="0 0 29.1689 11.1119" fill="none" xmlns="http://www.w3.org/2000/svg" xmlns:xlink="http://www.w3.org/1999/xlink">
	<desc>
			Created with Pixso.
	</desc>
	<defs>
		<filter id="filter_102_111_dd" x="0.000000" y="0.000000" width="6.945312" height="11.111938" filterUnits="userSpaceOnUse" color-interpolation-filters="sRGB">
			<feFlood flood-opacity="0" result="BackgroundImageFix"/>
			<feColorMatrix in="SourceAlpha" type="matrix" values="0 0 0 0 0 0 0 0 0 0 0 0 0 0 0 0 0 0 127 0" result="hardAlpha"/>
			<feOffset dx="0" dy="2.77799"/>
			<feGaussianBlur stdDeviation="0.925997"/>
			<feComposite in2="hardAlpha" operator="out" k2="-1" k3="1"/>
			<feColorMatrix type="matrix" values="0 0 0 0 0 0 0 0 0 0 0 0 0 0 0 0 0 0 0.25 0"/>
			<feBlend mode="normal" in2="BackgroundImageFix" result="effect_dropShadow_1"/>
			<feBlend mode="normal" in="SourceGraphic" in2="effect_dropShadow_1" result="shape"/>
		</filter>
	</defs>
	<rect id="Rectangle 11" x="2.778076" width="26.390923" height="5.555984" fill="#000000" fill-opacity="1.000000"/>
	<g filter="url(#filter_102_111_dd)">
		<line id="Line 2" x1="3.472656" y1="0.000000" x2="3.472656" y2="5.555969" stroke="#FF003C" stroke-opacity="1.000000" stroke-width="1.388996"/>
	</g>
	<path id="R25" d="M10.4282 5Q10.3781 5 10.3618 4.96066L9.5452 3.23934Q9.53978 3.22171 9.5235 3.22171L8.57806 3.22171Q8.55636 3.22171 8.55636 3.24476L8.55636 4.94439Q8.55636 5 8.50074 5L8.21725 5Q8.16163 5 8.16163 4.94439L8.16163 1.1667Q8.16163 1.11108 8.21725 1.11108L9.65643 1.11108Q10.1339 1.11108 10.4282 1.40814Q10.7226 1.7052 10.7226 2.18267Q10.7226 2.57197 10.511 2.84461Q10.3007 3.1159 9.93993 3.19458Q9.91687 3.20543 9.92908 3.22171L10.7619 4.93353Q10.7674 4.94439 10.7674 4.96066Q10.7674 5 10.7226 5L10.4282 5ZM8.57806 1.45562Q8.55636 1.45562 8.55636 1.47732L8.55636 2.8826Q8.55636 2.90565 8.57806 2.90565L9.61167 2.90565Q9.9345 2.90565 10.1339 2.70626Q10.3347 2.5055 10.3347 2.18267Q10.3347 1.86119 10.1339 1.65908Q9.9345 1.45562 9.61167 1.45562L8.57806 1.45562ZM12.9959 4.62833Q12.9783 4.65546 13.0068 4.65546L14.7512 4.65546Q14.8068 4.65546 14.8068 4.71108L14.8068 4.94439Q14.8068 5 14.7512 5L12.5347 5Q12.4791 5 12.4791 4.94439L12.4791 4.71108Q12.4791 4.67174 12.5063 4.64461Q12.6948 4.42216 13.3567 3.60015L13.7677 3.08877Q14.29 2.42819 14.29 2.06059Q14.29 1.76624 14.0892 1.58855Q13.8898 1.41086 13.567 1.41086Q13.2509 1.41086 13.0556 1.59126Q12.8616 1.77167 12.8671 2.06602L12.8671 2.23829Q12.8671 2.2939 12.8115 2.2939L12.5225 2.2939Q12.4669 2.2939 12.4669 2.23829L12.4669 2.01583Q12.4791 1.58855 12.787 1.32811Q13.0949 1.06632 13.567 1.06632Q13.9007 1.06632 14.1557 1.19383Q14.4121 1.32133 14.5504 1.5465Q14.6901 1.77167 14.6901 2.05517Q14.6901 2.52721 14.1679 3.19458Q13.8952 3.54454 13.118 4.4832L12.9959 4.62833ZM18.7685 3.30038Q18.8187 3.54454 18.8187 3.79955Q18.8187 4.07219 18.7685 4.26617Q18.6735 4.62155 18.39 4.83044Q18.1065 5.03934 17.7064 5.03934Q17.313 5.03934 17.0349 4.83994Q16.7569 4.63919 16.6565 4.3055Q16.6185 4.18342 16.6063 4.06134L16.6063 4.05049Q16.6063 4.00573 16.6565 4.00573L16.9508 4.00573Q17.0065 4.00573 17.0119 4.06134Q17.0119 4.0939 17.0349 4.17257Q17.0906 4.4113 17.2655 4.55373Q17.4405 4.6948 17.701 4.6948Q17.9682 4.6948 18.1486 4.54559Q18.329 4.39503 18.3846 4.13323Q18.4185 4.00573 18.4185 3.79955Q18.4185 3.611 18.39 3.43874Q18.3507 3.18372 18.1676 3.05079Q17.9845 2.91651 17.7118 2.91651Q17.4676 2.91651 17.2723 3.02773Q17.0783 3.13896 17.0241 3.32208Q17.0065 3.37227 16.9617 3.37227L16.6619 3.37227Q16.6063 3.37227 16.6063 3.31666L16.6063 1.1667Q16.6063 1.11108 16.6619 1.11108L18.6071 1.11108Q18.6627 1.11108 18.6627 1.1667L18.6627 1.4Q18.6627 1.45562 18.6071 1.45562L17.0241 1.45562Q17.001 1.45562 17.001 1.47732L16.9956 2.82156Q16.9956 2.83376 17.0037 2.83919Q17.0119 2.84461 17.0241 2.83376Q17.1624 2.7049 17.351 2.63572Q17.5395 2.56654 17.7511 2.56654Q18.1459 2.56654 18.4172 2.75916Q18.6898 2.95042 18.7685 3.30038Z" fill="#F8EF00" fill-opacity="1.000000" fill-rule="evenodd"/>
</svg>
