<svg width="30.950195" height="30.186707" viewBox="0 0 30.9502 30.1867" fill="none" xmlns="http://www.w3.org/2000/svg" xmlns:xlink="http://www.w3.org/1999/xlink">
	<desc>
			Created with Pixso.
	</desc>
	<defs/>
	<path d="M15.4751 0C6.92529 0 0 6.92511 0 15.4751C0 22.3228 4.42969 28.1067 10.5811 30.1571C11.355 30.2925 11.645 29.8283 11.645 29.4221C11.645 29.0545 11.6255 27.8358 11.6255 26.5398C7.73779 27.2556 6.73145 25.592 6.42236 24.7215C6.24805 24.2766 5.49365 22.9032 4.83594 22.5356C4.29443 22.2455 3.52051 21.5298 4.81641 21.5104C6.03516 21.4911 6.90576 22.6324 7.1958 23.0966C8.58887 25.4372 10.8135 24.7795 11.7031 24.3733C11.8384 23.3674 12.2446 22.6904 12.6895 22.3035C9.24658 21.9166 5.64844 20.5819 5.64844 14.6627C5.64844 12.9797 6.24805 11.587 7.23438 10.5037C7.08008 10.1169 6.53809 8.53067 7.38916 6.40283C7.38916 6.40283 8.68555 5.99661 11.645 7.98901C12.8828 7.64084 14.1982 7.46674 15.5137 7.46674C16.8291 7.46674 18.1445 7.64084 19.3828 7.98901C22.3423 5.97726 23.6382 6.40283 23.6382 6.40283C24.4893 8.53067 23.9478 10.1169 23.793 10.5037C24.7793 11.587 25.3794 12.9604 25.3794 14.6627C25.3794 20.6013 21.7617 21.9166 18.3188 22.3035C18.8799 22.7871 19.3633 23.7156 19.3633 25.1664C19.3633 27.2362 19.3438 28.8998 19.3438 29.4221C19.3438 29.8283 19.6343 30.3119 20.4077 30.1571C23.48 29.1199 26.1494 27.1455 28.0405 24.5117C29.9316 21.878 30.9492 18.7175 30.9502 15.4751C30.9502 6.92511 24.0249 0 15.4751 0Z" fill="#FFFFFF" fill-opacity="1.000000" fill-rule="evenodd"/>
</svg>
